<?xml version="1.0" encoding="iso-8859-1"?>
<!-- Uploaded to: SVG Repo, www.svgrepo.com, Generator: SVG Repo Mixer Tools -->
<svg height="800px" width="800px" version="1.1" id="Layer_1" xmlns="http://www.w3.org/2000/svg" xmlns:xlink="http://www.w3.org/1999/xlink" 
	 viewBox="0 0 512 512" xml:space="preserve">
<path style="fill:#6A563D;" d="M272.696,414.698v-52.959h-33.391v52.959c-19.433,6.892-33.391,25.449-33.391,47.215
	C205.913,489.532,228.381,512,256,512s50.087-22.468,50.087-50.087C306.087,440.146,292.128,421.589,272.696,414.698z M256,478.609
	c-9.206,0-16.696-7.49-16.696-16.696c0-9.206,7.49-16.696,16.696-16.696s16.696,7.49,16.696,16.696
	C272.696,471.119,265.206,478.609,256,478.609z"/>
<path style="fill:#554431;" d="M272.696,414.698v-52.959H256v50.087v33.391c9.206,0,16.696,7.49,16.696,16.696
	c0,9.206-7.49,16.696-16.696,16.696V512c27.619,0,50.087-22.468,50.087-50.087C306.087,440.146,292.128,421.589,272.696,414.698z"/>
<path style="fill:#E6F4FF;" d="M456.348,378.435H55.652c-9.223,0-16.696-7.479-16.696-16.696V50.087
	c0-9.217,7.473-16.696,16.696-16.696h400.696c9.223,0,16.696,7.479,16.696,16.696v311.652
	C473.043,370.956,465.57,378.435,456.348,378.435z"/>
<path style="fill:#C2DFF6;" d="M456.348,33.391H256v345.043h200.348c9.223,0,16.696-7.479,16.696-16.696V50.087
	C473.043,40.87,465.57,33.391,456.348,33.391z"/>
<path style="fill:#6A563D;" d="M489.739,66.783H22.261c-9.223,0-16.696-7.479-16.696-16.696V16.696C5.565,7.479,13.038,0,22.261,0
	h467.478c9.223,0,16.696,7.479,16.696,16.696v33.391C506.435,59.304,498.962,66.783,489.739,66.783z"/>
<path style="fill:#554431;" d="M489.739,0H256v66.783h233.739c9.223,0,16.696-7.479,16.696-16.696V16.696
	C506.435,7.479,498.962,0,489.739,0z"/>
<path style="fill:#00D7DF;" d="M256,122.435c-52.168,0-94.609,42.446-94.609,94.609s42.44,94.609,94.609,94.609
	s94.609-42.446,94.609-94.609S308.168,122.435,256,122.435z M272.696,158.16c20.34,5.762,36.402,21.81,42.188,42.188h-42.188V158.16
	z M256,278.261c-33.755,0-61.217-27.468-61.217-61.217c0-27.963,18.858-51.595,44.522-58.883v58.883
	c0,9.217,7.473,16.696,16.696,16.696h58.883C307.595,259.399,283.966,278.261,256,278.261z"/>
<path style="fill:#00B6BD;" d="M256,122.435v33.391v77.913h58.883c-7.288,25.66-30.917,44.522-58.883,44.522v33.391
	c52.168,0,94.609-42.446,94.609-94.609S308.168,122.435,256,122.435z M272.696,158.16c20.34,5.762,36.402,21.81,42.188,42.188
	h-42.188V158.16z"/>
</svg>